<svg width="90px" height="60px" viewBox="-5 0 47 25" fill="none" xmlns="http://www.w3.org/2000/svg">
<path d="M5.832 10.62V12H1.128V3.84H2.568V10.62H5.832ZM9.06816 12.6C8.80416 13.336 8.46816 13.864 8.06016 14.184C7.65216 14.512 7.09216 14.676 6.38016 14.676V13.296C6.80416 13.28 7.13616 13.184 7.37616 13.008C7.62416 12.84 7.80816 12.604 7.92816 12.3L8.03616 12.024L5.86416 5.916H7.23216L8.27616 8.952L8.68416 10.236L9.08016 8.952L10.0762 5.916H11.4442L9.06816 12.6ZM17.4593 8.592V9.312C17.4593 10.16 17.2273 10.84 16.7633 11.352C16.2993 11.864 15.6433 12.12 14.7953 12.12C13.9473 12.12 13.2913 11.864 12.8273 11.352C12.3633 10.84 12.1313 10.16 12.1313 9.312V8.592C12.1313 7.744 12.3593 7.068 12.8153 6.564C13.2793 6.052 13.9393 5.796 14.7953 5.796C15.6513 5.796 16.3073 6.052 16.7633 6.564C17.2273 7.068 17.4593 7.744 17.4593 8.592ZM16.0433 8.592C16.0433 8.104 15.9353 7.724 15.7193 7.452C15.5033 7.172 15.1953 7.032 14.7953 7.032C14.3953 7.032 14.0873 7.172 13.8713 7.452C13.6553 7.724 13.5473 8.104 13.5473 8.592V9.312C13.5473 9.8 13.6553 10.184 13.8713 10.464C14.0873 10.744 14.3953 10.884 14.7953 10.884C15.1953 10.884 15.5033 10.744 15.7193 10.464C15.9353 10.184 16.0433 9.8 16.0433 9.312V8.592ZM22.6426 12L21.1426 9.468C20.9026 9.708 20.6506 9.948 20.3866 10.188V12H19.0066V3.12H20.3866V8.664C20.8426 8.2 21.2346 7.756 21.5626 7.332C21.8986 6.9 22.2066 6.428 22.4866 5.916H24.0706C23.8066 6.396 23.5186 6.852 23.2066 7.284C22.8946 7.716 22.5506 8.152 22.1746 8.592L24.3106 12H22.6426ZM30.1975 8.592V9.312C30.1975 10.16 29.9655 10.84 29.5015 11.352C29.0375 11.864 28.3815 12.12 27.5335 12.12C26.6855 12.12 26.0295 11.864 25.5655 11.352C25.1015 10.84 24.8695 10.16 24.8695 9.312V8.592C24.8695 7.744 25.0975 7.068 25.5535 6.564C26.0175 6.052 26.6775 5.796 27.5335 5.796C28.3895 5.796 29.0455 6.052 29.5015 6.564C29.9655 7.068 30.1975 7.744 30.1975 8.592ZM28.7815 8.592C28.7815 8.104 28.6735 7.724 28.4575 7.452C28.2415 7.172 27.9335 7.032 27.5335 7.032C27.1335 7.032 26.8255 7.172 26.6095 7.452C26.3935 7.724 26.2855 8.104 26.2855 8.592V9.312C26.2855 9.8 26.3935 10.184 26.6095 10.464C26.8255 10.744 27.1335 10.884 27.5335 10.884C27.9335 10.884 28.2415 10.744 28.4575 10.464C28.6735 10.184 28.7815 9.8 28.7815 9.312V8.592Z" fill="#ffffff"/>
<path d="M7 14.0581C7 14.0581 10 12.5581 12 12.5581C14 12.5581 14 15.1344 17.5 14.5672C21 14 21.5 12.5 25.5 14C29.5 15.5 30 12 31.7796 12" stroke="#ffffff"/>
<path fill-rule="evenodd" clip-rule="evenodd" d="M40.2923 4.28961L36.3272 8.75906L35.8907 8.26706L39.856 3.79759C39.9766 3.66166 40.1719 3.66166 40.2923 3.79759C40.4129 3.93353 40.4129 4.15367 40.2923 4.28961ZM35.2363 9.98926C35.196 9.94395 34.7997 9.49725 34.7997 9.49725L35.4544 8.75906L35.8907 9.25107L35.2363 9.98926ZM34.5816 11.7108C34.2741 12.0365 32.9 12.7626 32.0909 12.0586C32.0909 12.0586 32.3725 11.8078 32.5856 11.3044C33.0947 9.76056 34.3635 9.98926 34.3635 9.98926L34.7997 10.4809C34.8041 10.4859 35.1257 11.1349 34.5816 11.7108ZM40.7288 3.30559C40.3673 2.89814 39.781 2.89814 39.4194 3.30559L34.0513 9.35704C33.3941 9.33991 32.4838 9.60572 32.0909 11.075C31.7906 11.852 31 11.8128 31 11.8128C32.6416 13.8918 34.5763 12.7137 35.0178 12.2028C35.4063 11.7539 35.4622 11.2045 35.4207 10.7649L40.7288 4.78161C41.0904 4.37381 41.0904 3.71304 40.7288 3.30559Z" fill="#ffffff"/>
</svg>
